<?xml version="1.0" standalone="no"?>
<!DOCTYPE svg PUBLIC "-//W3C//DTD SVG 20010904//EN"
 "http://www.w3.org/TR/2001/REC-SVG-20010904/DTD/svg10.dtd">
<svg version="1.0" xmlns="http://www.w3.org/2000/svg"
 width="512.000000pt" height="512.000000pt" viewBox="0 0 512.000000 512.000000"
 preserveAspectRatio="xMidYMid meet">
<metadata>
Created by potrace 1.14, written by Peter Selinger 2001-2017
</metadata>
<g transform="translate(0.000000,512.000000) scale(0.100000,-0.100000)"
fill="#000000" stroke="none">
<path d="M1960 5103 c0 -10 -9 -31 -20 -48 -52 -76 -50 -29 -50 -1030 0 -1076
-12 -967 109 -966 89 0 147 16 165 44 8 12 21 46 30 76 14 48 16 158 16 903 0
584 -4 879 -12 944 l-11 94 -114 0 c-101 0 -113 -2 -113 -17z"/>
<path d="M4780 5104 c0 -9 -17 -46 -37 -82 l-38 -67 -3 -918 c-4 -1024 -8
-956 66 -976 48 -13 147 2 182 27 14 10 36 40 50 68 l25 49 0 890 c0 490 -4
920 -8 958 l-9 67 -114 0 c-97 0 -114 -2 -114 -16z"/>
<path d="M835 5017 c-78 -31 -105 -66 -105 -138 0 -55 32 -103 88 -130 52 -26
90 -21 156 21 110 70 93 215 -30 249 -48 13 -70 13 -109 -2z"/>
<path d="M204 4529 c-17 -5 -52 -31 -77 -58 -80 -85 -79 -72 -74 -753 l3 -593
32 -113 c35 -126 30 -115 94 -203 69 -94 151 -161 254 -207 152 -68 146 -67
409 -66 233 1 242 1 310 27 196 72 207 78 287 158 85 85 95 103 162 272 l46
117 -2 679 c-3 672 -3 680 -24 708 -26 34 -75 48 -139 39 -37 -6 -58 -17 -96
-53 -27 -25 -54 -62 -61 -82 -9 -26 -14 -210 -17 -651 l-6 -615 -33 -78 c-19
-42 -45 -86 -59 -97 -14 -11 -68 -33 -119 -50 -89 -28 -104 -30 -257 -30 -139
0 -170 3 -216 20 -86 33 -127 57 -156 92 -62 74 -60 39 -65 788 -4 531 -8 690
-18 707 -26 47 -101 64 -178 42z"/>
<path d="M2905 4526 c-43 -18 -102 -88 -114 -134 -7 -23 -12 -254 -15 -598 -3
-464 -6 -570 -19 -624 -21 -86 -42 -145 -64 -175 -43 -61 -218 -114 -375 -115
-95 0 -161 -19 -178 -51 -16 -30 -11 -97 10 -139 11 -22 43 -57 70 -79 110
-87 221 -92 431 -22 109 36 136 50 198 99 89 71 157 157 182 230 25 73 42 98
82 119 29 16 79 18 562 23 588 6 539 0 644 75 35 25 60 57 96 122 l50 88 3
542 c2 372 -1 556 -8 584 -9 32 -18 43 -45 55 -77 32 -158 10 -220 -58 -61
-68 -65 -100 -65 -564 0 -357 -2 -392 -19 -430 -10 -22 -31 -50 -46 -62 -27
-22 -32 -22 -455 -22 l-427 0 -22 24 c-48 51 -51 87 -51 570 0 280 -4 465 -10
488 -6 21 -21 44 -33 53 -27 19 -120 19 -162 1z"/>
<path d="M3777 2839 c-45 -37 -67 -77 -67 -121 0 -43 21 -72 73 -102 71 -40
99 -40 178 -1 l70 36 82 -28 c137 -47 225 -34 263 38 35 68 3 147 -76 187 -58
30 -113 26 -202 -17 l-67 -32 -70 36 c-90 45 -133 46 -184 4z"/>
<path d="M470 2359 c-75 -11 -96 -20 -162 -73 -95 -76 -93 -66 -96 -408 l-4
-297 26 -26 c47 -47 158 -30 224 34 51 50 70 109 81 250 7 108 9 114 40 144
l31 32 169 3 c139 3 175 0 200 -13 59 -30 61 -43 61 -383 0 -200 -4 -320 -11
-341 -21 -61 -42 -65 -354 -71 -276 -5 -281 -6 -335 -31 -32 -16 -83 -54 -122
-93 -60 -59 -71 -76 -90 -139 -17 -54 -22 -96 -22 -167 1 -119 14 -164 63
-226 21 -27 43 -58 49 -70 6 -11 47 -42 91 -68 91 -54 170 -71 297 -64 68 3
74 5 118 46 52 48 85 53 145 23 53 -27 61 -41 72 -117 12 -87 43 -141 94 -168
76 -40 194 -18 215 40 6 14 10 56 10 94 0 92 12 115 78 147 42 20 69 27 116
26 61 0 71 -4 179 -66 51 -29 172 -18 329 31 70 22 136 46 147 53 118 86 166
129 183 164 12 22 33 58 48 80 14 22 34 61 44 86 9 26 26 55 37 65 20 18 64
19 1138 24 1273 6 1136 -6 1243 103 109 111 103 66 106 717 2 311 1 579 -3
596 -9 48 -39 74 -88 74 -58 0 -157 -48 -188 -91 l-24 -34 -5 -455 c-5 -472
-5 -474 -48 -522 -19 -23 -34 -23 -63 1 l-24 19 -5 500 c-5 488 -6 501 -26
529 -39 52 -131 65 -193 26 -43 -26 -102 -100 -117 -144 -12 -33 -15 -118 -14
-428 0 -304 -3 -397 -14 -440 -15 -54 -40 -91 -61 -91 -38 0 -40 17 -45 539
-5 546 -5 542 -60 574 -47 28 -91 22 -156 -22 -33 -22 -70 -51 -84 -66 l-25
-27 -5 -466 c-5 -511 -6 -512 -65 -542 -25 -13 -107 -15 -518 -18 -332 -2
-506 1 -543 8 -61 13 -99 49 -109 103 -3 18 -7 241 -8 497 -2 423 -4 468 -20
497 -35 65 -92 67 -197 5 -107 -63 -100 -15 -100 -642 -1 -608 -7 -732 -42
-788 -84 -138 -180 -182 -413 -190 -91 -3 -149 -9 -167 -18 -34 -18 -80 -18
-138 0 -40 12 -51 11 -95 -4 -28 -10 -74 -29 -103 -44 l-53 -27 -32 27 c-69
59 -148 70 -207 31 -19 -13 -47 -27 -62 -31 -34 -8 -107 9 -168 39 -25 12 -68
30 -96 39 -29 9 -59 25 -68 35 -19 21 -24 87 -9 102 22 22 97 29 338 29 138 0
265 4 283 9 47 14 161 91 204 139 88 98 90 111 86 742 -3 509 -4 526 -24 560
l-20 35 -395 1 c-217 1 -419 -2 -449 -7z"/>
</g>
</svg>
